<?xml version="1.0" standalone="no"?><!DOCTYPE svg PUBLIC "-//W3C//DTD SVG 1.1//EN" "http://www.w3.org/Graphics/SVG/1.1/DTD/svg11.dtd"><svg t="1522293026974" class="icon" style="" viewBox="0 0 1024 1024" version="1.1" xmlns="http://www.w3.org/2000/svg" p-id="2041" xmlns:xlink="http://www.w3.org/1999/xlink" width="128" height="128"><defs><style type="text/css"></style></defs><path d="M737.195021 868.912863 407.900415 868.912863l0 0c-8.497925 48.863071-48.863071 84.979253-99.850622 84.979253-55.236515 0-101.975104-44.614108-101.975104-101.975104 0-40.365145 23.369295-74.356846 55.236515-91.352697l0 0L150.838174 150.838174C148.713693 138.091286 135.966805 127.46888 121.095436 127.46888L48.863071 127.46888l0 0C33.991701 127.46888 21.244813 114.721992 21.244813 97.726141s12.746888-29.742739 29.742739-29.742739l95.60166 0c27.618257 0 53.112033 21.244813 57.360996 46.738589l0 0L212.448133 163.585062l0 0 399.40249 0 363.286307 0c16.995851 0 29.742739 12.746888 29.742739 29.742739 0 2.124481 0 4.248963 0 6.373444l-84.979253 456.763485c0 0 0-2.124481 0 0-2.124481 12.746888-14.871369 23.369295-27.618257 23.369295l-282.556017 0-299.551867 0 12.746888 74.356846 0 0c36.116183 4.248963 67.983402 27.618257 80.73029 59.485477l342.041494 0 0 0c14.871369-36.116183 50.987552-59.485477 93.477178-59.485477 55.236515 0 101.975104 44.614108 101.975104 101.975104 0 55.236515-44.614108 101.975104-101.975104 101.975104C786.058091 953.892116 743.568465 917.775934 737.195021 868.912863L737.195021 868.912863zM922.024896 316.547718l14.871369-80.73029 0 0c0 0 0-2.124481 0-4.248963 0-6.373444-4.248963-10.622407-10.622407-10.622407l0 0-316.547718 0-386.655602 0 16.995851 95.60166 10.622407 57.360996 0 0 44.614108 246.439834 314.423237 0 240.06639 0-2.124481 0c8.497925 0 14.871369-6.373444 16.995851-14.871369l44.614108-231.568465L922.024896 316.547718zM310.174274 809.427386c-23.369295 0-42.489627 19.120332-42.489627 42.489627s19.120332 42.489627 42.489627 42.489627 42.489627-19.120332 42.489627-42.489627S333.543568 809.427386 310.174274 809.427386zM837.045643 809.427386c-23.369295 0-42.489627 19.120332-42.489627 42.489627s19.120332 42.489627 42.489627 42.489627c23.369295 0 42.489627-19.120332 42.489627-42.489627S860.414938 809.427386 837.045643 809.427386z" p-id="2042" fill="#8a8a8a"></path></svg>